<?xml version="1.0" standalone="no"?>
<!DOCTYPE svg PUBLIC "-//W3C//DTD SVG 20010904//EN"
 "http://www.w3.org/TR/2001/REC-SVG-20010904/DTD/svg10.dtd">
<svg version="1.0" xmlns="http://www.w3.org/2000/svg"
 width="450.000000pt" height="450.000000pt" viewBox="0 0 450.000000 450.000000"
 preserveAspectRatio="xMidYMid meet">
<metadata>
Created by potrace 1.10, written by Peter Selinger 2001-2011
</metadata>
<g transform="translate(0.000000,450.000000) scale(0.100000,-0.100000)"
fill="#000000" stroke="none">
<path d="M1648 3106 l-388 -221 0 -625 0 -626 144 -82 c79 -45 146 -82 150
-82 3 0 6 276 6 614 l0 614 233 127 c127 70 235 130 240 134 4 4 6 89 5 188
l-3 181 -387 -222z"/>
<path d="M2450 2875 l0 -455 -205 0 -205 0 0 175 c0 96 -3 175 -6 175 -4 0
-78 -39 -165 -86 l-159 -86 2 -611 3 -611 160 -93 160 -92 3 454 2 455 205 0
205 0 0 -175 c0 -96 3 -175 8 -175 4 0 75 38 157 83 l150 84 3 611 2 611 -137
82 c-76 45 -148 88 -160 96 l-23 13 0 -455z"/>
<path d="M2920 2433 l0 -618 -235 -128 -235 -129 0 -185 0 -185 33 19 c17 11
191 111 385 223 l352 203 0 626 0 627 -143 82 c-78 45 -146 82 -150 82 -4 0
-7 -278 -7 -617z"/>
</g>
</svg>
